 <svg version="1.0" xmlns="http://www.w3.org/2000/svg"  width="300.000000pt" height="300.000000pt" viewBox="0 0 300.000000 300.000000"  preserveAspectRatio="xMidYMid meet">  <g transform="translate(0.000000,300.000000) scale(0.050000,-0.050000)" fill="#000000" stroke="none"> <path d="M1 5146 c1 -630 8 -845 25 -828 29 29 55 28 49 -1 -3 -13 18 -26 45 -28 87 -9 260 -58 260 -74 0 -8 17 -15 37 -15 20 0 78 -22 127 -48 50 -26 101 -41 114 -33 43 26 302 -63 302 -104 0 -11 15 -14 33 -6 19 7 41 1 50 -13 13 -21 16 -21 17 0 0 15 9 21 20 14 12 -7 15 -23 7 -36 -7 -13 -7 -18 2 -10 8 7 37 5 64 -5 68 -26 137 -38 292 -52 74 -7 135 -19 135 -27 0 -8 20 -15 45 -15 126 -1 129 -3 77 -47 -33 -27 -78 -40 -140 -40 -94 0 -184 -6 -340 -25 -86 -11 -202 27 -202 64 0 27 -97 63 -172 63 -95 0 -88 -87 12 -155 l66 -45 -68 13 c-81 17 -305 133 -385 200 -56 47 -286 170 -302 161 -4 -2 -15 4 -24 14 -10 11 -7 13 7 5 13 -8 28 3 36 27 8 24 22 35 36 26 13 -7 11 3 -6 23 -27 34 -31 34 -37 4 -3 -18 -14 -28 -25 -22 -10 7 -13 20 -7 30 6 11 1 19 -11 19 -12 0 -16 10 -8 23 8 13 5 18 -6 11 -11 -7 -37 5 -56 26 -61 67 -70 47 -70 -160 l0 -199 115 -58 c99 -50 326 -134 340 -127 2 1 42 -11 89 -27 46 -17 142 -35 212 -40 71 -5 147 -20 170 -32 28 -15 44 -16 49 -2 7 22 10 21 180 -16 181 -40 95 -58 -211 -46 -322 12 -416 11 -470 -5 -19 -6 -34 -4 -32 5 8 49 -16 62 -167 87 -91 14 -168 23 -173 18 -4 -4 -15 12 -24 37 -16 44 -78 64 -78 25 0 -11 15 -20 34 -20 29 0 29 -4 -5 -29 -31 -23 -34 -33 -14 -54 14 -14 25 -20 25 -14 0 7 50 0 112 -14 61 -15 124 -21 140 -15 39 14 138 -12 116 -32 -28 -24 -222 -62 -320 -62 l-88 0 0 -275 0 -275 87 -36 c64 -26 99 -30 135 -16 37 15 40 20 11 21 -20 0 -33 12 -28 26 15 46 519 42 679 -5 91 -28 131 -49 125 -66 -7 -19 44 -39 175 -69 256 -59 291 -63 329 -35 22 16 57 19 99 9 36 -8 70 -10 76 -5 11 12 166 10 290 -3 49 -5 104 -1 122 9 23 12 47 9 72 -9 34 -25 31 -29 -39 -59 -42 -17 -92 -51 -112 -76 -32 -39 -43 -42 -88 -21 -40 18 -75 17 -157 -4 -129 -33 -439 -59 -616 -53 -283 10 -670 52 -660 72 6 11 17 18 26 15 9 -3 36 8 60 25 41 29 41 30 3 31 -82 3 -421 -5 -479 -11 -33 -3 -71 -7 -85 -8 -45 -4 -30 -118 18 -133 33 -10 36 -17 15 -31 -18 -11 25 -18 115 -18 102 0 149 8 167 30 27 33 160 42 160 11 0 -11 -15 -14 -33 -7 -27 10 -31 5 -19 -26 8 -21 20 -87 25 -148 11 -133 46 -260 72 -260 11 0 14 13 8 29 -6 17 -4 34 5 40 29 18 47 311 21 343 -20 23 -14 28 29 28 28 0 52 -8 52 -18 0 -9 142 -20 315 -22 173 -3 450 -9 615 -14 428 -14 637 -7 655 20 24 37 -2 -149 -35 -248 l-29 -88 11 82 10 82 -121 -4 c-66 -2 -121 2 -121 9 0 24 -112 21 -320 -10 -201 -30 -543 -20 -765 24 -55 10 -55 10 -55 -101 l0 -112 75 0 c41 1 134 13 205 28 72 15 133 24 138 20 16 -15 -113 -51 -262 -72 l-156 -22 2 -102 c2 -98 2 -100 21 -36 53 184 167 99 184 -137 10 -142 21 -191 48 -211 53 -40 67 -34 56 27 -9 51 16 125 35 104 5 -5 13 -60 18 -122 9 -117 -4 -129 -79 -71 -16 12 -25 12 -25 0 0 -25 98 -70 121 -55 10 6 58 -51 106 -127 119 -184 179 -231 283 -217 69 9 95 0 185 -61 l105 -72 -74 -92 c-167 -207 -316 -367 -360 -383 -27 -11 -46 -35 -46 -58 0 -74 -64 -229 -132 -318 -89 -116 -87 -123 33 -123 l100 0 41 95 c82 192 305 625 322 625 15 0 8 -59 -15 -135 -20 -66 32 -13 83 84 31 60 60 105 64 101 4 -4 -17 -55 -46 -113 -81 -161 -128 -296 -108 -308 22 -14 -50 -159 -109 -219 -152 -155 -138 -179 22 -35 89 81 118 125 187 295 45 110 100 241 123 290 130 285 156 351 161 398 7 61 129 307 227 454 37 56 67 108 67 115 0 30 -119 11 -138 -22 -18 -32 -23 -31 -71 14 -56 53 -70 141 -21 141 40 0 38 11 -12 78 -51 69 -31 124 63 172 43 23 59 45 59 86 0 29 14 99 31 154 82 269 120 664 78 810 -9 30 -89 38 -149 15 -80 -31 -244 -34 -219 -4 13 16 32 29 43 29 10 0 33 14 49 31 22 21 51 26 99 17 81 -15 89 12 15 46 -44 21 -62 19 -111 -9 -42 -25 -62 -28 -72 -12 -14 24 -124 -53 -124 -87 -1 -24 -147 -89 -207 -93 -29 -2 -53 -9 -53 -17 0 -38 -87 -35 -158 5 -58 33 -93 40 -135 29 -87 -23 -422 -34 -390 -13 23 15 23 20 0 29 -18 7 -15 11 9 12 20 1 31 11 24 22 -7 11 8 20 34 20 172 2 334 17 365 34 46 26 111 10 111 -26 0 -15 12 -22 30 -15 16 6 25 19 19 29 -6 10 1 13 16 7 15 -6 44 7 63 29 27 30 47 35 81 22 53 -20 170 49 171 101 0 22 21 31 75 32 41 1 64 -2 50 -7 -19 -7 -19 -15 3 -36 29 -30 112 -18 112 16 0 11 6 15 13 8 7 -7 30 -3 52 9 29 15 36 15 26 -1 -8 -13 1 -22 20 -22 18 0 37 -17 43 -38 6 -24 22 -34 45 -28 26 7 40 -6 50 -47 8 -31 21 -61 29 -67 8 -5 43 -61 78 -123 36 -62 78 -123 94 -137 69 -57 87 -131 32 -130 -33 0 -53 -13 -58 -35 -4 -20 5 -35 22 -35 43 0 83 -53 50 -66 -18 -7 -15 -11 7 -12 17 -1 47 18 65 43 l33 45 -12 -50 c-17 -67 -82 -120 -148 -120 -88 0 -88 -25 1 -55 45 -15 84 -25 87 -21 3 3 29 47 58 98 95 165 116 173 211 87 45 -40 82 -64 82 -53 0 23 -89 94 -262 209 -108 73 -214 170 -196 180 4 3 26 15 48 27 22 12 58 57 80 100 43 84 66 107 106 108 19 0 20 -10 5 -39 -26 -48 -26 -61 -1 -61 11 0 20 14 20 31 0 18 14 45 30 62 60 60 1 138 -64 84 -24 -20 -26 -16 -15 28 11 46 7 51 -29 41 -23 -6 -42 -2 -42 9 0 58 141 46 293 -24 180 -84 179 -84 127 35 -50 112 -60 119 -151 103 -70 -14 -88 -62 -20 -56 24 2 29 -3 15 -17 -14 -14 -40 -12 -82 6 -51 23 -56 30 -27 41 26 11 19 15 -25 17 -33 2 -49 8 -35 13 46 19 27 67 -26 67 -81 0 -39 34 60 49 133 20 322 152 352 247 13 41 30 83 36 94 19 32 24 71 28 222 l4 141 85 -1 c47 -1 87 7 87 18 1 11 10 2 19 -20 14 -33 17 -27 19 30 l1 70 44 -70 c61 -98 63 -125 9 -99 -37 19 -37 16 7 -23 37 -33 40 -41 13 -31 -29 10 -35 6 -25 -18 6 -18 12 -36 12 -41 0 -4 14 -8 30 -8 17 0 30 -10 30 -21 0 -12 -10 -15 -23 -7 -16 10 -19 -1 -10 -36 24 -98 -112 -208 -177 -143 -28 28 -36 29 -52 5 -27 -43 -21 -110 12 -138 25 -20 30 -19 30 8 0 40 -2 40 106 -6 99 -43 148 -142 70 -142 -21 0 -33 8 -27 19 11 18 -63 53 -95 45 -8 -3 -43 10 -76 27 -34 18 -66 28 -71 23 -13 -13 390 -227 460 -245 49 -12 56 -9 50 23 -4 21 -21 39 -37 40 -51 4 -120 32 -120 48 0 9 38 12 85 6 l85 -10 -95 61 c-82 54 -140 112 -70 71 169 -101 175 -107 175 -188 0 -103 3 -102 280 32 127 61 288 133 359 160 198 76 212 94 143 195 -91 132 -140 170 -133 103 14 -124 -162 -155 -197 -34 -11 39 -11 73 0 84 11 11 19 -3 21 -33 4 -71 37 -100 76 -68 42 35 39 75 -9 101 -45 24 -54 80 -13 80 35 0 278 122 266 133 -5 5 -62 -16 -126 -48 -64 -32 -174 -75 -243 -95 -96 -28 -123 -44 -114 -67 8 -22 0 -20 -31 8 -50 45 -61 38 202 117 191 57 321 140 382 243 44 73 76 75 79 3 2 -41 3 -41 13 -4 22 89 193 290 245 290 9 0 20 -23 25 -51 9 -47 7 -48 -25 -19 -69 62 -63 -42 10 -181 75 -144 73 -185 -11 -233 -82 -47 -192 -27 -229 42 -16 30 -29 39 -30 22 0 -24 -4 -25 -18 -3 -20 32 -82 -132 -82 -217 0 -139 301 -300 619 -331 109 -11 142 -21 144 -47 1 -17 4 -54 6 -82 4 -43 27 -138 64 -265 5 -20 46 -54 91 -77 l80 -41 29 41 c44 63 108 92 129 59 23 -36 23 -262 0 -248 -10 6 -28 -17 -40 -52 -35 -101 -26 -133 18 -62 85 140 136 35 66 -138 -21 -54 -26 -87 -12 -92 13 -4 15 -34 5 -81 -8 -41 -31 -146 -49 -234 -19 -88 -33 -198 -32 -245 2 -52 -7 -85 -21 -85 -15 0 -19 -33 -11 -105 32 -277 -380 -480 -433 -215 -8 40 -24 60 -48 60 -61 0 -83 37 -64 105 20 68 76 139 99 125 9 -5 27 18 40 51 14 33 38 67 54 76 54 30 -92 415 -206 545 -36 40 -35 67 2 98 25 21 26 31 5 56 -14 17 -25 72 -25 122 0 81 -6 94 -60 119 -71 33 -170 121 -170 152 -2 95 -83 71 -97 -29 -4 -27 -19 -64 -34 -81 -100 -111 -174 -419 -101 -419 18 0 25 14 18 38 -19 75 69 94 136 30 60 -57 92 -348 38 -348 -72 0 83 -164 192 -204 38 -13 68 -33 68 -44 0 -42 -85 -192 -109 -192 -33 0 -191 169 -259 277 -29 45 -57 83 -64 83 -19 0 15 -88 49 -127 18 -21 34 -61 35 -90 1 -29 8 -69 17 -88 11 -25 6 -35 -17 -35 -18 0 -30 8 -27 17 3 10 -26 61 -65 115 -38 54 -67 107 -63 118 3 11 0 14 -7 6 -8 -7 -36 -5 -63 5 -66 25 -34 -38 79 -156 46 -47 77 -85 69 -85 -59 0 -116 52 -173 159 -36 68 -70 119 -76 114 -17 -17 115 -233 161 -263 24 -15 84 -35 133 -43 87 -15 88 -16 30 -29 -59 -13 -59 -13 14 -16 84 -2 96 60 26 138 -20 22 -32 45 -26 50 12 12 172 -175 180 -210 3 -14 -16 -28 -44 -31 -27 -4 -93 -13 -145 -20 -207 -31 -318 56 -493 386 -53 101 2 36 78 -92 121 -204 159 -234 264 -208 79 18 81 20 24 23 -34 1 -76 18 -93 37 -45 51 -148 231 -164 287 -63 217 -79 231 -237 202 l-76 -14 66 -89 c36 -49 120 -193 186 -320 152 -292 294 -353 531 -230 35 17 65 29 67 25 99 -138 101 -179 3 -105 -44 33 -140 40 -121 9 7 -12 58 -44 113 -72 272 -137 375 -320 337 -591 l-26 -175 -54 75 c-93 128 -254 244 -201 144 12 -21 21 -78 21 -127 0 -65 16 -111 60 -176 48 -72 59 -109 60 -201 0 -179 5 -184 130 -122 l107 52 -38 49 -39 49 85 77 c59 53 104 77 147 77 42 1 85 22 132 66 44 41 115 78 193 100 l123 36 0 290 c0 197 -7 287 -21 278 -11 -7 -16 -28 -10 -46 8 -23 -27 -72 -109 -153 -112 -111 -179 -137 -123 -47 43 68 17 59 -104 -37 -78 -62 -122 -85 -136 -71 -14 14 15 40 88 82 59 34 125 81 146 105 22 23 73 56 114 72 41 17 71 37 65 45 -5 8 13 36 41 62 46 44 66 99 35 99 -8 0 -67 -52 -131 -115 -114 -112 -115 -113 -111 -55 5 63 31 92 171 191 l85 61 0 141 c0 117 -5 139 -30 130 -39 -15 -38 5 3 50 28 31 29 41 5 70 -19 23 -20 30 -3 20 18 -11 25 6 25 64 0 72 -4 78 -45 70 l-45 -10 45 40 c49 43 73 963 25 963 -29 0 -25 75 5 87 18 7 18 10 -2 11 -22 2 -23 8 -3 31 24 30 20 414 -7 566 -6 36 -4 65 4 65 8 0 17 68 20 151 l6 150 -77 -82 c-83 -89 -262 -144 -234 -72 7 18 20 28 30 22 10 -6 18 4 18 23 0 19 6 29 12 22 7 -7 25 -1 40 12 64 57 84 71 92 63 26 -25 102 98 111 178 10 90 10 90 -61 104 -100 18 -154 -3 -154 -62 0 -27 -11 -49 -26 -49 -48 0 -297 -270 -283 -306 9 -22 3 -34 -16 -34 -83 0 -99 -72 -27 -127 38 -29 79 -53 90 -53 26 0 122 -308 99 -317 -10 -3 -12 -16 -5 -27 9 -14 -29 -16 -114 -7 -184 20 -194 24 -183 81 9 46 4 50 -68 50 -42 0 -111 10 -151 21 -60 16 -85 14 -123 -11 -56 -37 -120 -19 -107 29 5 23 -11 42 -49 59 -64 29 -118 115 -115 186 1 28 5 34 11 16 6 -16 15 -43 20 -60 7 -23 17 -18 38 20 26 47 28 47 28 7 1 -57 50 -94 110 -82 28 5 46 2 40 -6 -5 -9 4 -14 20 -11 38 5 131 92 130 120 0 12 -27 -9 -59 -48 -32 -38 -59 -63 -59 -54 -1 20 199 271 256 322 24 21 43 59 43 85 0 26 10 47 21 47 12 0 16 -8 10 -19 -6 -10 -1 -25 12 -33 14 -8 18 -6 10 7 -7 12 17 40 54 63 37 23 108 85 157 138 50 53 99 93 109 90 31 -11 103 79 117 144 9 40 7 51 -6 33 -14 -20 -21 -13 -29 27 -9 50 -6 53 47 45 75 -11 74 12 -11 151 -79 132 -68 139 75 48 57 -37 115 -73 129 -81 18 -11 25 6 25 66 0 44 -9 81 -20 81 -53 0 -98 78 -80 139 9 34 10 57 1 52 -9 -6 -21 14 -27 44 -6 30 -2 58 8 62 29 10 21 43 -12 43 -45 0 -37 15 43 89 l73 67 -82 59 c-269 195 -734 125 -983 -148 -226 -247 -274 -522 -142 -819 l42 -95 -52 56 c-28 31 -47 68 -41 82 5 15 1 29 -10 33 -23 8 -34 75 -39 236 -4 126 36 261 125 419 108 193 107 270 -3 177 -34 -30 -40 -29 -79 16 -34 39 -37 51 -15 60 47 18 30 100 -21 100 -24 0 -40 -5 -37 -11 4 -6 -7 -24 -23 -39 -27 -24 -29 -22 -16 18 10 31 7 41 -8 31 -12 -7 -22 -6 -22 3 0 10 -25 16 -55 13 -30 -2 -108 -4 -172 -5 -109 -2 -116 -5 -90 -37 24 -31 23 -32 -4 -11 -42 33 -136 47 -150 24 -8 -13 -21 -13 -38 1 -35 29 -56 1 -26 -36 14 -17 -6 -10 -44 17 -37 26 -63 39 -56 28 7 -11 -6 -31 -28 -45 -35 -22 -42 -20 -51 15 -10 40 -26 44 -181 43 -84 0 -115 -7 -130 -29 -10 -15 -21 -13 -34 8 -16 24 -27 25 -58 6 -21 -13 -44 -18 -51 -11 -19 19 -67 27 -204 33 -68 4 -134 13 -148 22 -17 11 -21 8 -12 -7 8 -13 5 -23 -6 -23 -11 0 -25 9 -32 20 -7 11 -32 19 -56 18 -41 -2 -40 -3 6 -18 43 -13 39 -15 -26 -15 -42 1 -65 8 -53 16 44 27 -17 40 -100 22 -44 -11 -81 -14 -81 -8 0 5 -13 -1 -28 -14 -20 -16 -33 -16 -41 -2 -8 12 -40 21 -73 21 -33 0 -56 -8 -50 -17 6 -9 -12 -16 -40 -14 -28 1 -59 16 -69 32 -13 21 -18 22 -19 3 0 -19 -10 -20 -38 -5 -25 13 -440 20 -1191 20 l-1152 -1 2 -852z m4647 691 c-8 -12 7 -38 34 -58 47 -36 47 -36 9 -78 -49 -54 -56 -100 -20 -114 16 -6 24 -19 18 -29 -7 -10 -22 -13 -34 -5 -14 8 -17 2 -10 -17 7 -17 1 -43 -12 -56 -18 -20 -16 -23 7 -11 25 12 25 10 -1 -13 -17 -14 -28 -39 -25 -56 9 -46 -23 -83 -61 -69 -18 8 -33 29 -33 48 0 44 -58 161 -79 161 -9 0 -15 16 -14 35 2 19 -9 33 -23 30 -15 -4 -21 3 -14 15 7 11 30 20 51 20 22 0 39 8 39 17 0 23 99 66 121 52 11 -6 19 -1 19 12 0 14 -17 19 -40 13 -22 -6 -40 -2 -40 8 0 18 32 26 70 19 11 -3 14 2 6 10 -15 14 16 89 36 89 6 0 4 -10 -4 -23z m-162 -136 c-19 -23 -53 -41 -75 -41 -36 1 -35 4 9 26 38 20 49 40 46 84 -4 56 -4 56 25 14 27 -38 26 -47 -5 -83z m892 54 c-12 -22 -58 -54 -101 -71 l-79 -31 49 -46 c74 -68 83 -117 31 -169 l-44 -44 14 56 c10 38 6 62 -12 73 -20 12 -20 16 -1 17 14 0 25 9 25 20 0 11 -18 20 -40 20 -22 0 -40 -9 -40 -20 0 -12 -25 -16 -55 -11 -54 9 -54 9 -15 -25 22 -19 36 -32 32 -29 -5 3 -31 -9 -58 -27 -49 -32 -49 -32 -36 20 15 60 -54 79 -76 21 -6 -17 -21 -26 -32 -19 -11 7 -20 1 -20 -14 -1 -20 -5 -20 -18 2 -25 39 52 111 198 184 66 32 120 71 120 86 0 35 76 67 133 56 39 -7 43 -14 25 -49z m-1593 -148 c-14 -6 -25 -22 -25 -36 0 -14 -13 -37 -30 -51 -16 -14 -31 -53 -33 -87 l-2 -63 -13 70 c-15 77 41 178 98 177 20 0 22 -3 5 -10z m1695 -8 c0 -12 9 -16 20 -9 11 7 46 -16 78 -52 39 -42 70 -59 92 -51 95 37 179 -76 120 -161 -43 -61 -247 -39 -223 24 18 45 -25 85 -48 45 -30 -51 -199 -40 -199 13 0 48 51 131 94 154 25 13 40 32 34 41 -6 9 -1 17 11 17 11 0 21 -10 21 -21z m-1825 -117 c6 -52 0 -67 -34 -76 -23 -6 -56 -41 -73 -78 -21 -43 -47 -68 -71 -68 -24 0 -34 -9 -26 -22 8 -12 2 -30 -12 -39 -49 -30 -58 2 -18 67 44 72 50 103 16 82 -15 -9 -18 -5 -9 9 8 13 22 19 32 13 9 -6 29 17 43 50 19 43 41 60 77 62 27 0 39 6 26 11 -29 12 -10 72 20 62 12 -4 25 -37 29 -73z m-2529 20 c9 -1 11 -10 5 -21 -7 -11 11 -12 48 -1 61 17 134 8 173 -23 13 -10 38 -12 55 -5 19 7 33 2 33 -11 0 -13 8 -19 17 -13 9 6 34 -2 55 -18 37 -28 37 -29 -6 -29 -24 -1 -48 -9 -54 -18 -21 -34 -532 90 -532 129 0 6 7 6 16 1 9 -6 27 -3 41 5 21 13 64 14 149 4z m3180 -67 c71 -171 99 -328 74 -406 l-25 -76 -43 58 c-37 51 -42 86 -42 274 0 241 -1 239 36 150z m714 -25 c0 -4 -10 -14 -23 -22 -15 -9 -18 -5 -9 14 8 15 1 11 -16 -10 -17 -21 -25 -48 -18 -60 8 -12 0 -11 -17 3 -17 13 -37 19 -44 11 -7 -7 1 15 18 50 28 56 109 66 109 14z m-3076 -60 c-7 -11 2 -9 19 5 17 13 37 18 45 10 8 -7 8 2 1 21 -8 19 -4 34 9 34 12 0 22 -9 22 -19 0 -10 32 -16 71 -12 57 5 66 2 48 -20 -17 -21 -7 -25 51 -19 62 5 68 3 38 -19 -39 -29 -21 -75 23 -58 16 6 24 19 18 29 -22 36 26 17 76 -29 47 -44 121 -69 225 -78 22 -2 52 -15 68 -30 15 -15 39 -23 54 -17 15 6 33 0 40 -12 9 -14 5 -16 -12 -6 -17 11 -21 8 -12 -7 8 -13 26 -23 40 -23 14 0 42 -18 62 -40 19 -21 43 -34 52 -29 10 6 37 0 62 -13 74 -40 216 -40 218 -1 2 29 4 29 12 -2 5 -19 24 -33 42 -31 72 5 106 -4 92 -27 -9 -15 -5 -18 9 -9 13 8 17 25 9 38 -26 41 -24 76 4 87 15 6 23 23 17 39 -6 15 -2 28 10 28 39 0 46 -42 15 -90 -35 -54 -41 -78 -15 -62 10 6 13 -11 8 -38 -6 -33 1 -54 23 -62 17 -7 27 -21 20 -31 -6 -10 -1 -32 13 -48 13 -16 16 -29 6 -29 -55 0 -467 88 -517 110 -33 15 -132 51 -220 81 -205 70 -390 166 -390 204 0 21 -15 27 -50 20 -38 -7 -45 -4 -30 15 16 19 -10 31 -105 50 -135 26 -155 29 -360 50 -165 17 -174 42 -21 55 75 6 121 20 134 41 24 37 97 -17 76 -56z m-324 45 c-1 -56 -30 -72 -100 -55 l-70 16 66 2 c37 1 61 10 55 20 -9 15 5 28 44 40 3 1 5 -9 5 -23z m3660 -65 c-14 -16 -38 -30 -54 -30 -16 0 -26 -11 -21 -25 5 -14 19 -25 32 -25 13 0 23 -7 23 -15 0 -8 0 -24 0 -35 0 -11 -9 -20 -20 -20 -11 0 -20 10 -20 23 0 12 -15 34 -34 47 -30 22 -30 29 -5 54 53 52 140 75 99 26z m-1546 -153 l50 -114 98 70 c54 39 98 81 99 94 0 13 11 5 23 -17 13 -22 34 -49 47 -60 52 -43 92 -126 68 -141 -16 -9 -6 -29 30 -60 l54 -46 -47 -9 c-41 -8 -40 -9 9 -11 52 -3 55 1 55 87 0 113 20 114 74 4 45 -93 42 -170 -10 -250 -16 -25 -25 -50 -19 -56 6 -5 35 32 64 83 30 51 60 87 66 80 7 -6 2 -22 -11 -35 -13 -13 -24 -53 -24 -89 0 -64 -30 -108 -44 -65 -5 14 -17 11 -34 -10 -18 -21 -19 -32 -4 -32 12 0 22 -31 22 -70 0 -102 56 -94 72 10 15 93 32 98 99 31 123 -123 -35 -265 -400 -360 -371 -96 -671 53 -483 241 37 37 73 81 79 98 7 16 22 30 34 30 12 0 17 16 12 35 -5 19 -16 55 -23 80 -15 52 43 60 175 24 l75 -21 0 -140 0 -141 -47 56 c-26 32 -67 95 -90 141 -49 96 -97 139 -71 64 8 -27 17 -68 18 -93 2 -25 9 -51 17 -58 7 -8 13 -39 13 -69 0 -53 60 -118 109 -118 11 0 1 14 -23 30 -24 17 -49 59 -57 95 -8 36 -24 72 -37 80 -16 10 -16 14 1 15 13 0 67 -54 120 -120 109 -135 123 -143 113 -65 -5 44 10 68 76 120 87 68 91 87 7 33 -47 -31 -49 -31 -49 9 0 22 -9 46 -19 52 -11 7 -14 26 -7 44 6 17 1 38 -13 46 -15 10 26 33 108 62 177 63 177 112 0 102 -129 -8 -169 -28 -169 -85 0 -44 -8 -46 -61 -17 -22 11 -39 35 -39 52 0 23 -15 29 -57 23 -56 -8 -56 -8 -47 88 7 79 4 95 -20 86 -34 -14 -76 67 -76 146 1 85 26 217 36 184 5 -17 31 -81 58 -143z m1706 -12 c0 -5 -13 1 -28 14 -40 33 -50 0 -19 -59 14 -27 27 -37 27 -21 0 20 13 15 42 -16 33 -36 37 -51 17 -74 -20 -24 -16 -29 20 -29 66 0 39 -46 -39 -69 -49 -14 -70 -12 -75 5 -10 30 -65 32 -65 2 0 -55 -88 -97 -137 -65 -27 17 -42 22 -35 10 7 -11 5 -25 -5 -31 -10 -7 -23 6 -29 28 -6 25 0 40 16 40 14 0 31 14 37 30 7 18 0 30 -18 30 -16 0 -29 7 -28 15 1 21 73 105 90 105 23 0 113 104 118 135 11 78 111 33 111 -50z m-4278 5 c21 -11 38 -26 38 -35 0 -8 16 -15 35 -15 28 -1 29 -4 7 -18 -15 -10 -21 -28 -13 -40 20 -33 6 -27 -65 25 -35 26 -59 52 -53 57 6 6 -3 16 -20 23 -17 6 -31 1 -31 -12 0 -13 -19 -5 -42 19 -62 61 -31 95 46 51 33 -19 78 -44 98 -55z m3838 -139 c-13 -17 -20 -48 -15 -69 7 -28 2 -36 -17 -28 -16 5 -28 19 -28 29 0 25 67 116 78 106 4 -5 -4 -22 -18 -38z m-2920 -32 c0 -12 8 -16 19 -10 22 14 121 -29 121 -52 0 -9 17 -17 39 -17 21 0 44 -9 51 -20 11 -18 174 -99 285 -142 89 -34 60 -118 -40 -117 -148 3 -392 100 -338 136 33 22 -130 123 -201 124 -45 0 -45 1 -7 30 38 29 38 29 0 30 -39 0 -39 1 0 30 46 34 71 37 71 8z m-1720 -138 c25 -17 26 -23 2 -45 -15 -14 -22 -16 -15 -3 15 27 -41 54 -57 27 -6 -10 -24 -13 -41 -7 -16 6 -24 19 -18 29 15 23 91 23 129 -1z m1598 -179 c98 -98 84 -267 -22 -260 -21 1 -21 3 0 12 21 8 21 16 0 42 -14 17 -16 26 -4 18 25 -14 21 80 -4 103 -8 7 -9 -2 -2 -21 7 -19 4 -40 -7 -47 -10 -6 -19 3 -19 21 0 19 -9 27 -23 18 -14 -8 -18 -5 -10 8 8 11 4 27 -7 34 -11 7 -14 23 -6 36 9 13 17 31 18 39 6 32 9 35 28 35 11 0 37 -17 58 -38z m1519 -9 c17 -20 15 -26 -7 -26 -17 0 -30 9 -30 21 0 12 -8 10 -18 -5 -13 -20 -27 -22 -57 -6 -22 12 -45 17 -50 11 -6 -6 -17 -1 -24 11 -20 32 159 27 186 -6z m-3014 -111 c40 -13 109 -27 154 -31 45 -5 91 -13 101 -20 10 -6 44 -14 75 -18 108 -13 337 -57 367 -71 17 -8 57 -9 90 -2 108 21 158 2 117 -43 -33 -37 -33 -39 9 -50 24 -7 44 -21 44 -32 0 -11 -20 -15 -45 -8 -25 6 -101 24 -170 39 -69 16 -138 40 -155 54 -16 13 -43 19 -60 13 -16 -7 -30 -5 -30 4 0 9 -11 17 -25 18 -98 5 -370 61 -414 85 -21 11 -59 20 -85 21 -52 0 -116 42 -116 76 0 16 12 17 35 6 19 -10 68 -28 108 -41z m1873 -62 c32 -24 74 -80 94 -126 20 -46 46 -90 57 -97 11 -8 -36 -10 -104 -6 -116 7 -127 4 -176 -50 -60 -68 -100 -68 -460 1 -111 21 -228 39 -260 40 -31 0 -46 6 -32 11 14 6 20 20 13 31 -9 13 4 15 34 5 65 -22 578 -27 578 -6 0 9 20 15 45 14 25 -1 69 7 98 19 29 12 57 18 62 13 4 -5 8 5 8 21 0 17 -7 30 -16 30 -9 0 -11 13 -5 28 6 15 1 34 -11 41 -12 8 -16 22 -10 33 7 10 1 17 -12 13 -13 -3 -28 6 -33 19 -13 36 62 16 130 -34z m-880 -6 c46 -42 72 -44 56 -3 -7 19 -3 26 10 18 11 -7 16 -27 9 -43 -8 -21 -2 -27 19 -19 16 7 30 8 30 4 0 -4 5 -22 12 -39 8 -21 1 -32 -20 -32 -19 0 -39 14 -45 31 -9 23 -18 25 -39 7 -22 -18 -28 -15 -30 15 -3 36 -3 36 -12 -1 -6 -21 -16 -29 -23 -17 -7 11 -48 25 -91 31 -42 6 -83 19 -90 29 -6 11 -25 24 -42 30 -16 6 3 9 43 8 40 -2 69 -10 64 -18 -5 -8 0 -15 12 -15 11 0 21 12 21 27 0 36 70 28 116 -13z m3190 -16 c35 -55 -52 -168 -172 -225 -142 -68 -226 -86 -111 -24 114 61 226 195 211 253 -13 49 40 46 72 -4z m-2938 -47 c-9 -24 0 -26 46 -13 41 12 70 9 96 -10 21 -16 29 -28 18 -28 -11 0 -32 11 -47 25 -22 20 -25 19 -15 -10 14 -38 -18 -45 -101 -23 -36 10 -40 19 -24 50 24 45 43 51 27 9z m1513 -104 c25 -108 24 -196 -2 -132 -27 69 -30 57 -22 -115 9 -200 -4 -258 -57 -254 -29 2 -37 13 -29 38 7 20 3 36 -7 36 -11 0 -24 18 -30 40 -14 53 -86 52 -115 -2 -42 -78 34 -137 97 -74 13 13 24 15 24 4 0 -32 -82 -92 -110 -81 -15 6 -32 -3 -39 -20 -9 -25 -1 -29 44 -19 41 10 47 8 25 -7 -18 -12 -20 -21 -7 -21 13 0 51 23 84 50 73 62 75 17 2 -62 -107 -116 -277 -162 -264 -70 10 64 2 71 -88 91 -60 13 -64 10 -95 -81 -43 -126 -42 -128 33 -130 l65 -1 -59 -18 c-69 -21 -120 13 -140 93 -7 27 -21 44 -32 38 -10 -7 -19 2 -19 20 0 18 8 28 17 22 9 -6 27 11 40 39 12 27 14 49 4 49 -10 0 -17 18 -16 39 2 22 7 36 12 31 4 -4 21 5 37 21 16 16 39 23 51 16 13 -8 15 -4 6 11 -8 14 -26 20 -40 15 -13 -5 -24 3 -24 19 0 15 13 28 30 28 25 0 23 5 -6 26 -19 15 -38 51 -42 80 -3 29 -17 67 -32 83 -77 85 -77 86 -26 120 28 18 60 26 73 19 12 -8 33 1 47 20 14 19 31 34 37 33 42 -4 53 2 40 24 -8 14 -7 18 2 10 9 -8 28 -5 42 6 25 21 24 -32 -3 -155 -11 -50 21 -81 38 -36 7 17 24 30 39 30 15 0 39 23 54 50 15 28 35 50 46 50 10 0 8 14 -6 30 -14 17 -20 37 -13 44 7 7 13 2 13 -11 0 -23 68 -22 91 2 7 7 25 7 41 2 19 -8 -8 -51 -93 -144 -109 -121 -296 -433 -273 -455 60 -61 146 -27 184 72 22 56 56 117 75 134 45 41 47 95 2 78 -27 -11 -28 -8 -8 17 14 17 32 26 41 21 8 -5 48 22 89 60 41 39 83 70 94 70 11 0 19 43 17 95 -5 129 -3 136 22 111 11 -11 29 -56 39 -99z m783 -262 c21 -21 46 -83 55 -137 9 -54 17 -87 19 -73 1 14 16 25 32 25 20 0 31 21 32 65 1 64 2 64 17 12 46 -150 -43 -297 -209 -345 -61 -18 -85 -20 -62 -6 79 49 171 139 161 156 -6 10 -40 -3 -75 -30 -83 -61 -154 -84 -155 -48 -1 15 -8 11 -16 -9 -13 -32 -19 -32 -97 7 -88 43 -126 106 -88 144 12 12 22 45 23 73 2 176 243 286 363 166z m-2123 -38 c186 -31 329 -40 434 -26 19 2 52 19 73 37 31 25 35 26 21 2 -9 -16 -18 -46 -20 -65 -11 -148 -307 -134 -724 35 -89 36 -118 83 -39 63 25 -7 140 -27 255 -46z m2678 -116 c70 -101 74 -122 28 -139 -27 -11 -28 -8 -8 17 20 24 13 46 -38 120 -35 50 -58 91 -53 91 6 0 38 -40 71 -89z m-65 -78 c-10 -31 -119 -29 -129 2 -5 14 6 25 23 25 18 0 32 -10 32 -21 0 -12 9 -16 20 -9 12 7 16 21 9 31 -6 10 3 13 21 6 17 -6 28 -22 24 -34z m-148 -66 c8 -7 2 -27 -11 -44 -20 -24 -20 -28 0 -16 14 9 25 7 25 -3 0 -11 -16 -24 -35 -29 -19 -6 -53 -17 -75 -25 -40 -15 -40 -15 0 17 33 27 34 31 5 21 -54 -19 -44 50 10 71 57 23 65 24 81 8z m1554 -117 c0 -22 -13 -27 -48 -19 -27 7 -74 -1 -110 -20 -45 -23 -73 -27 -97 -12 -31 17 -31 20 -2 20 17 1 43 15 57 31 35 42 200 41 200 0z m-3970 -33 c11 -6 41 -10 66 -8 33 3 43 -4 34 -26 -6 -16 0 -37 14 -46 44 -28 -79 -19 -180 12 -52 17 -125 33 -163 37 -38 3 -71 15 -75 25 -6 20 270 26 304 6z m-1250 -328 c0 -6 -32 -42 -71 -82 -79 -79 -127 -80 -211 -6 -27 23 -37 37 -24 30 13 -6 58 1 100 17 112 43 206 62 206 41z m225 -107 c30 -11 55 -31 55 -44 0 -14 -13 -16 -35 -7 -19 8 -71 21 -115 27 -96 14 -117 59 -24 51 35 -3 89 -15 119 -27z m1432 -350 c-31 -117 -35 -161 -18 -172 18 -11 16 -33 -8 -90 -17 -42 -36 -71 -42 -66 -20 21 35 387 67 440 46 79 46 63 1 -112z m-907 78 c33 -4 87 -16 120 -27 l60 -20 -60 -4 c-33 -3 -73 -4 -90 -2 -16 1 -59 5 -95 9 -35 4 -70 13 -78 20 -7 8 -49 14 -92 14 -46 0 -72 8 -65 20 11 18 101 15 300 -10z m3631 -98 c-13 -39 -18 -80 -11 -92 7 -11 -2 -20 -19 -20 -33 0 -29 45 12 158 28 75 44 33 18 -46z m-3321 -674 l110 -3 -90 -15 c-132 -23 -334 1 -312 37 6 10 49 11 97 1 47 -9 135 -18 195 -20z m-449 -543 c-5 -30 -2 -55 8 -55 24 0 81 58 81 81 0 11 9 19 21 19 39 0 98 -167 99 -279 l0 -109 -40 43 c-22 24 -40 52 -40 62 0 25 -116 123 -147 123 -22 0 -29 180 -14 390 5 63 10 49 24 -70 10 -82 14 -175 8 -205z m565 -3 c7 -246 65 -281 86 -52 l11 130 4 -115 c2 -78 11 -113 27 -110 14 3 30 -25 36 -65 18 -104 2 -128 -44 -70 -89 114 -127 13 -40 -108 51 -69 176 -79 131 -10 -30 45 -28 52 48 143 43 52 95 120 115 151 69 108 52 35 -28 -120 -45 -87 -82 -172 -82 -191 0 -18 -8 -38 -19 -44 -10 -7 -43 -61 -72 -122 -30 -60 -62 -115 -72 -121 -27 -17 -20 6 33 113 41 80 45 99 20 99 -16 0 -30 9 -30 20 0 11 -26 20 -59 20 -41 0 -62 12 -71 40 -7 22 -21 40 -30 40 -24 0 -59 131 -62 230 -1 44 -10 103 -19 130 -12 33 -16 -20 -12 -154 4 -113 -1 -200 -10 -194 -9 6 -17 41 -17 78 0 37 -9 73 -20 80 -12 7 -20 -16 -20 -58 0 -68 -40 -122 -56 -75 -4 13 -16 18 -26 12 -12 -8 -17 91 -14 254 l6 267 90 10 c182 21 189 14 196 -208z m224 -67 c0 -39 -10 -65 -25 -65 -18 0 -23 28 -18 93 8 104 42 82 43 -28z m3481 -126 c-38 -32 -79 -59 -90 -58 -12 0 10 27 48 60 38 32 79 59 90 58 12 0 -10 -27 -48 -60z m371 -179 c26 0 48 -9 48 -20 0 -29 -63 -23 -120 12 -27 17 -34 26 -13 19 20 -6 58 -11 85 -11z m-182 -57 c-83 -79 -237 -163 -266 -145 -18 10 -12 26 21 56 67 61 138 94 153 70 7 -12 36 -1 72 28 82 65 92 60 20 -9z"/> <path d="M3896 5000 l-52 -118 61 -21 c34 -11 64 -21 68 -21 15 0 6 258 -9 267 -9 6 -39 -43 -68 -107z"/> <path d="M4200 4493 c0 -67 -15 -84 -66 -75 -10 2 -11 -6 -4 -18 7 -11 1 -20 -12 -20 -14 0 -20 -5 -13 -11 38 -38 134 54 122 116 -18 91 -27 94 -27 8z"/> <path d="M5197 4935 c5 -36 13 -54 17 -41 5 13 22 19 37 13 42 -16 35 19 -11 59 -54 45 -55 44 -43 -31z"/> <path d="M3830 4025 c-24 -4 -57 -41 -83 -93 -38 -78 -38 -86 -8 -78 21 5 34 -3 34 -21 0 -17 -12 -25 -31 -19 -19 5 -13 -7 15 -32 102 -90 273 33 237 171 -5 21 -10 10 -12 -27 -3 -79 -70 -147 -141 -143 l-51 3 53 8 c57 9 141 106 92 106 -17 1 -18 5 -3 15 12 8 27 37 34 63 9 35 6 42 -11 25 -17 -17 -30 -16 -54 3 -17 14 -49 23 -71 19z"/> <path d="M5912 4903 c-7 -11 10 -43 38 -71 43 -43 50 -45 50 -14 0 45 -71 113 -88 85z"/> <path d="M268 4123 c8 -13 44 -23 81 -23 36 0 76 -13 89 -28 13 -15 48 -32 78 -38 30 -6 74 -17 99 -24 68 -22 54 16 -17 48 -130 57 -352 101 -330 65z"/> <path d="M5149 4014 c-116 -105 -114 -110 48 -127 141 -15 149 -2 86 140 l-34 77 -100 -90z"/> <path d="M3424 4029 c-54 -38 -57 -101 -5 -128 53 -29 56 -28 92 28 62 94 3 162 -87 100z"/> <path d="M4771 4022 c-13 -21 105 -73 123 -55 7 7 -5 14 -26 15 -30 2 -28 6 12 20 43 15 41 16 -16 8 -40 -6 -61 -2 -54 10 7 11 3 20 -8 20 -11 0 -25 -8 -31 -18z"/> <path d="M4692 3738 c-120 -109 -139 -168 -78 -229 33 -33 36 -33 55 1 12 20 59 80 106 134 87 100 112 145 50 92 -75 -64 -86 -57 -36 22 69 110 38 103 -97 -20z m16 -128 c-38 -59 -68 -65 -68 -13 0 46 17 63 64 63 35 0 35 -3 4 -50z"/> <path d="M3141 3643 c-1 -39 61 -163 81 -163 28 0 21 24 -31 110 -28 44 -50 68 -50 53z"/> <path d="M4917 3626 c-94 -24 -106 -186 -14 -186 34 0 219 146 203 160 -21 20 -148 37 -189 26z"/> <path d="M3373 3499 c-29 -23 -61 -37 -71 -31 -9 7 -23 -9 -29 -33 -18 -66 -16 -95 8 -95 12 0 15 10 8 22 -8 13 -1 19 20 15 18 -4 33 -16 33 -27 2 -89 94 -96 183 -13 103 95 -41 249 -152 162z m99 -134 c46 9 48 7 22 -19 -40 -41 -114 -1 -113 60 2 44 2 43 20 -3 15 -37 30 -45 71 -38z"/> <path d="M5170 3523 c-133 -43 -187 -203 -69 -203 51 0 60 22 28 67 -16 23 -29 51 -28 62 0 12 14 -4 30 -34 17 -30 37 -55 45 -54 31 1 111 83 93 95 -10 8 -19 27 -19 42 0 34 -26 42 -80 25z"/> <path d="M4264 3489 c-57 -40 -56 -99 3 -169 l47 -55 76 64 c61 51 73 72 60 103 -16 36 -17 36 -25 -5 -22 -123 -189 -150 -183 -29 1 21 5 23 11 7 15 -37 56 -31 97 15 63 69 -6 125 -86 69z"/> <path d="M4428 3483 c37 -41 287 -174 301 -161 9 9 -298 198 -321 198 -8 0 1 -17 20 -37z"/> <path d="M3981 3401 c-17 -10 -26 -22 -20 -27 261 -219 358 -265 454 -218 50 25 91 33 125 23 28 -8 86 -16 130 -17 l80 -2 -107 52 c-61 29 -112 68 -118 90 -8 30 -16 34 -37 16 -15 -12 -23 -30 -17 -40 24 -39 -116 -99 -143 -62 -14 19 -31 28 -39 20 -7 -8 -49 31 -92 85 -80 101 -145 125 -216 80z"/> <path d="M3563 3298 c-79 -75 -106 -90 -118 -68 -11 20 -24 23 -45 8 -23 -16 -24 -24 -5 -31 14 -6 25 -28 25 -49 0 -68 66 -40 206 90 127 118 133 127 88 136 -37 7 -72 -13 -151 -86z"/> <path d="M5250 3376 c-83 -47 -71 -144 16 -132 56 8 73 32 74 101 0 59 -25 68 -90 31z"/> <path d="M5749 3239 c-32 -34 -136 -114 -230 -179 -95 -64 -185 -133 -200 -153 -21 -25 -11 -23 36 10 l65 46 0 -69 c0 -38 12 -97 26 -130 l25 -61 84 37 c78 35 82 41 66 96 -9 32 -9 98 0 146 10 49 18 95 18 104 1 9 43 60 94 115 51 54 88 99 83 99 -4 0 -35 -27 -67 -61z"/> <path d="M3768 3197 c21 -128 86 -161 159 -80 74 82 28 163 -94 163 l-78 0 13 -83z"/> <path d="M3000 3170 c0 -22 -11 -30 -30 -23 -16 7 -30 3 -30 -8 0 -10 16 -20 35 -21 23 -1 17 -7 -15 -17 -30 -9 -47 -26 -42 -43 5 -15 8 -49 7 -74 -1 -42 3 -40 46 20 26 36 58 78 70 92 12 14 19 40 15 58 -8 45 -56 58 -56 16z"/> <path d="M3280 3126 c0 -18 -31 -62 -70 -97 -38 -36 -70 -82 -70 -103 0 -21 -27 -58 -60 -83 -66 -48 -86 -202 -37 -280 19 -31 2 -56 -121 -180 -235 -234 -298 -418 -189 -545 53 -62 -10 -203 -108 -240 -30 -11 -74 -39 -98 -61 -23 -22 -59 -37 -79 -33 -108 18 -174 -369 -74 -433 90 -57 82 -71 -39 -72 l-105 -2 -150 -310 c-82 -170 -149 -322 -147 -338 1 -16 -4 -24 -12 -19 -8 5 -25 -13 -38 -41 -13 -30 -15 -49 -3 -49 11 0 20 10 20 22 0 23 79 17 145 -11 27 -12 35 -6 35 27 0 23 8 42 19 42 34 0 41 -35 11 -60 -18 -15 -25 -42 -18 -70 7 -30 1 -49 -21 -57 -17 -6 -31 -30 -31 -52 0 -23 -10 -41 -22 -41 -12 0 -17 13 -12 28 16 41 -8 55 -44 27 -28 -22 -29 -21 -7 7 13 17 18 38 10 46 -8 9 3 28 24 44 32 23 33 28 6 28 -17 0 -35 11 -40 24 -6 19 -11 19 -23 0 -8 -13 -5 -24 7 -24 11 0 21 -9 21 -20 0 -26 -74 -26 -90 0 -18 29 -50 25 -50 -7 0 -15 -21 -36 -48 -48 -26 -12 -67 -50 -91 -84 l-44 -61 434 1 c481 1 483 1 696 153 53 38 99 66 103 62 20 -22 -40 -101 -104 -134 -136 -72 -140 -79 -39 -77 52 1 99 9 105 18 6 9 26 17 44 17 29 -1 30 -3 4 -20 -22 -14 -3 -19 67 -20 77 0 95 6 86 29 -6 16 -17 100 -25 185 -8 86 -25 173 -39 193 -14 21 -21 49 -16 64 6 14 -1 47 -15 72 -27 49 -30 62 -50 182 -11 67 -8 75 30 75 33 0 42 12 42 60 0 56 -3 58 -53 39 -46 -18 -50 -16 -28 10 57 68 203 -3 240 -117 39 -117 -49 -303 -123 -261 -20 12 -21 9 -2 -11 36 -39 117 22 146 111 32 97 10 197 -56 253 -63 53 -80 196 -23 196 65 0 194 -118 155 -142 -13 -9 -13 -26 2 -54 33 -62 25 -82 -9 -24 l-29 50 5 -70 c5 -66 9 -70 70 -64 41 4 86 -8 120 -32 31 -21 85 -38 122 -36 64 2 108 -37 112 -98 5 -61 36 -114 53 -88 12 19 17 0 18 -56 0 -65 -11 -92 -50 -122 -46 -37 -110 -215 -110 -308 0 -75 215 -49 415 51 263 132 324 148 365 98 32 -39 33 -39 98 19 42 37 81 56 104 50 24 -6 38 0 38 17 0 15 31 33 70 40 91 17 89 32 -28 163 -94 105 -99 116 -99 228 -1 72 -13 135 -31 161 l-30 43 -13 -51 c-30 -123 -194 -201 -512 -244 l-177 -25 0 98 c0 54 -10 117 -22 140 -14 25 -15 46 -3 54 10 6 29 39 40 72 l22 60 1 -75 c1 -47 12 -75 28 -75 14 0 35 -27 48 -60 48 -128 84 -55 88 180 1 83 8 173 16 200 l14 50 24 -44 c14 -24 16 -48 6 -55 -10 -6 -10 -44 0 -92 11 -45 14 -90 7 -100 -17 -29 10 -62 37 -45 31 20 114 31 114 15 0 -6 -10 -30 -22 -52 -12 -22 -17 -44 -12 -49 19 -20 78 21 95 65 12 31 40 52 79 60 47 9 60 22 60 61 0 46 -25 76 -167 203 -29 26 -48 54 -43 63 6 9 3 20 -5 23 -8 4 -31 39 -51 77 -27 50 -28 59 -5 31 17 -21 31 -32 31 -25 0 27 84 -70 89 -102 2 -18 16 -36 31 -41 15 -5 20 1 12 14 -8 13 -5 23 7 23 11 0 21 -12 21 -27 0 -15 18 -43 40 -63 22 -20 40 -28 40 -18 0 10 9 5 20 -12 16 -24 19 -21 20 15 0 47 28 60 50 25 18 -29 50 -4 50 39 0 25 14 35 45 33 38 -2 44 7 41 58 -3 38 1 50 12 33 18 -29 82 -25 109 7 10 13 20 11 26 -5 6 -14 19 -20 29 -14 27 17 22 89 -6 89 -19 0 -19 5 0 24 13 13 24 36 24 50 0 33 -54 34 -65 2 -5 -15 -13 -10 -21 11 -8 20 -5 30 5 24 33 -20 39 19 17 105 -12 48 -33 84 -48 84 -37 0 -35 -50 4 -111 18 -27 23 -49 12 -49 -12 0 -27 19 -35 43 -24 76 -263 295 -309 283 -45 -12 -48 -23 -22 -92 10 -26 23 -88 28 -137 6 -49 21 -128 33 -175 29 -104 23 -114 -27 -47 -22 28 -28 45 -15 37 12 -8 23 -5 23 7 0 12 -12 27 -27 32 -14 6 -28 22 -29 35 -2 13 -9 83 -15 154 -14 145 -19 158 -53 124 -13 -13 -36 -24 -51 -24 -34 0 -85 -49 -85 -81 0 -18 -7 -18 -30 1 -16 14 -54 20 -83 15 -29 -6 -79 -3 -112 6 -50 15 -66 9 -110 -37 -28 -30 -54 -44 -59 -32 -4 12 -31 18 -59 12 -31 -6 -58 1 -68 18 -14 23 -23 20 -48 -12 -30 -40 -30 -40 -30 2 -1 24 -20 67 -43 96 l-42 54 -106 -116 c-106 -116 -106 -117 -121 -281 l-14 -165 90 -105 c49 -58 100 -125 113 -150 13 -25 37 -45 53 -45 17 0 29 -19 30 -45 0 -44 1 -44 30 -6 16 21 29 28 29 15 0 -13 10 -24 21 -24 12 0 15 10 8 21 -7 12 4 26 25 32 38 10 44 18 116 159 22 43 47 83 56 90 8 6 10 26 2 45 -9 25 -4 30 20 21 22 -8 32 -1 32 23 0 32 96 140 111 124 22 -21 -104 -335 -134 -335 -34 0 -79 -127 -83 -236 -8 -190 -187 -155 -358 70 -148 195 -416 288 -416 145 0 -39 -8 -56 -21 -48 -12 7 -44 -7 -70 -32 -117 -110 -48 202 103 465 113 198 117 247 11 151 l-50 -45 46 76 c25 42 40 81 34 87 -6 7 3 26 20 42 16 17 26 48 20 68 -7 27 2 37 30 37 22 0 34 9 28 19 -31 50 143 324 243 382 64 37 88 86 33 66 -20 -8 -63 -32 -96 -54 -32 -23 -52 -31 -45 -19 8 12 2 82 -14 155 -28 134 -13 191 49 191 11 0 19 14 19 31 0 50 59 57 106 12 105 -98 141 90 60 315 -60 166 -126 244 -126 148z m259 -1533 c-16 -15 -60 -38 -99 -51 l-70 -23 60 50 c65 54 165 75 109 24z m127 -46 c15 -14 -67 -91 -151 -142 -30 -19 -55 -47 -55 -63 0 -22 -6 -24 -22 -8 -31 31 14 94 106 146 42 23 76 51 76 61 0 22 27 25 46 6z m-964 -165 c-46 -12 -49 -20 -46 -168 2 -88 -5 -154 -17 -154 -10 0 -19 14 -19 32 0 17 -11 27 -25 22 -14 -5 -53 2 -87 16 -43 18 -73 19 -100 5 -21 -12 -10 9 27 48 36 38 65 80 65 94 0 18 9 17 31 -6 54 -53 89 -38 89 37 0 70 19 89 90 88 32 0 30 -3 -8 -14z m987 -25 c-9 -27 -6 -37 8 -29 37 23 -13 -93 -66 -155 -61 -71 -96 -56 -65 28 16 40 17 66 3 75 -12 8 -1 32 26 58 25 25 45 39 45 31 0 -7 11 -2 24 11 34 34 41 30 25 -19z m-1091 -520 c22 -23 53 -37 70 -31 20 8 28 0 26 -27 -2 -37 -18 -47 -67 -41 -12 1 -28 -11 -34 -28 -15 -38 -53 -39 -53 -1 0 16 -10 35 -23 43 -16 10 -18 5 -6 -14 13 -22 11 -23 -12 -5 -22 18 -41 17 -79 -4 -59 -33 -108 -37 -90 -9 7 11 3 20 -9 20 -11 0 -21 -13 -21 -28 0 -15 -29 -38 -65 -50 l-65 -21 49 41 c52 43 68 111 33 134 -12 7 46 24 128 36 83 13 156 24 164 25 8 2 32 -16 54 -40z m123 -246 c-18 -21 -13 -34 19 -57 47 -33 43 -37 -210 -201 -55 -36 -163 -110 -241 -166 -118 -85 -144 -96 -166 -73 -20 21 -21 34 -3 56 13 16 18 38 11 49 -8 12 3 21 23 21 20 0 77 22 126 50 50 27 141 73 204 102 79 36 116 65 120 94 3 25 27 49 56 58 44 14 43 14 -10 7 -66 -9 -323 -125 -425 -192 -36 -24 -65 -34 -65 -24 0 11 56 49 125 86 69 37 137 78 152 93 14 14 36 20 48 13 14 -9 17 -2 10 18 -15 39 31 61 63 29 16 -16 29 -15 47 5 17 18 17 23 1 14 -13 -8 -29 -4 -36 7 -7 12 -6 20 4 18 41 -7 66 4 66 31 0 38 66 50 87 16 9 -16 7 -39 -6 -54z m1715 -188 c20 -13 13 -26 -27 -52 -43 -28 -57 -30 -70 -9 -13 21 -22 21 -47 0 -17 -14 -42 -22 -56 -17 -15 5 3 27 44 52 75 46 114 52 156 26z m-2312 -47 c-29 -27 -124 -41 -124 -17 0 13 9 18 20 11 11 -7 20 -4 20 7 0 10 22 17 49 16 27 -2 43 -9 35 -17z m563 -62 c-66 -77 -163 -156 -137 -112 27 45 158 178 177 178 9 0 -9 -30 -40 -66z m-818 -155 c-7 -11 -2 -34 12 -50 28 -34 20 -36 -50 -9 -28 10 -51 28 -51 39 0 11 15 14 33 7 23 -9 29 -5 19 11 -9 14 -2 23 18 23 18 0 27 -9 19 -21z"/> <path d="M3645 3147 c-14 -6 -25 -20 -25 -31 0 -11 13 -15 29 -9 18 7 34 -5 42 -30 18 -58 33 -32 18 31 -14 53 -20 57 -64 39z"/> <path d="M4032 3124 c-30 -6 -32 -12 -10 -26 20 -12 21 -17 3 -18 -35 0 -31 -53 5 -67 17 -7 30 -1 30 13 0 15 8 13 20 -6 11 -16 20 -21 20 -10 1 11 19 -2 42 -30 23 -27 36 -39 29 -25 -16 30 18 32 70 5 30 -16 47 -12 79 20 22 22 40 32 40 21 0 -10 -9 -24 -20 -31 -33 -20 -23 -41 20 -45 23 -1 36 6 29 16 -6 11 0 19 15 19 19 1 18 6 -4 20 -20 13 -22 19 -5 20 14 0 25 7 25 17 0 9 -36 15 -80 15 -44 -1 -80 3 -80 10 0 6 -14 11 -31 11 -18 0 -26 -11 -20 -27 6 -16 2 -23 -9 -16 -11 7 -20 25 -20 41 0 30 -50 41 -65 14 -5 -8 -6 -4 -3 9 8 33 -35 60 -80 50z"/> <path d="M1611 3093 c-35 -26 -35 -27 0 -40 44 -17 86 18 57 47 -14 14 -32 11 -57 -7z"/> <path d="M3540 3079 c0 -11 22 -64 50 -118 l49 -98 -44 -9 c-33 -6 -27 -9 19 -11 48 -2 73 -17 97 -58 17 -30 25 -37 18 -15 -41 116 1 167 58 70 23 -39 51 -60 79 -59 66 2 218 68 200 88 -9 10 0 11 21 4 20 -7 105 -14 190 -16 120 -2 138 -5 83 -17 l-70 -15 80 -1 c97 -1 193 31 110 37 -35 3 -40 6 -15 13 81 21 26 35 -100 26 -74 -6 -175 -3 -225 6 -49 9 -114 19 -143 23 -29 4 -71 17 -93 29 -38 20 -166 22 -154 2 3 -5 -16 -26 -43 -46 l-48 -37 -49 112 c-47 106 -70 135 -70 90z"/> <path d="M550 2829 c-45 -14 -186 -28 -320 -30 -206 -3 -227 -6 -150 -22 158 -33 517 -11 620 37 l90 43 -80 -1 c-44 0 -116 -12 -160 -27z"/> <path d="M5767 2670 c0 -99 3 -142 8 -96 4 47 4 128 0 180 -4 53 -8 15 -8 -84z"/> <path d="M4190 2792 c-33 -23 -34 -32 -12 -60 45 -54 106 -41 98 21 -7 65 -34 77 -86 39z"/> <path d="M866 2751 c16 -16 53 -35 82 -42 28 -7 52 -20 52 -28 0 -18 5 -18 230 -32 122 -7 170 -5 149 9 -17 11 -82 22 -144 24 -70 3 -150 23 -209 51 -113 55 -207 65 -160 18z"/> <path d="M3826 2705 c-85 -6 -113 -17 -147 -61 l-42 -53 -83 48 c-62 35 -76 39 -55 13 64 -78 140 -99 183 -50 l38 44 0 -49 c0 -101 137 -134 235 -57 28 22 71 40 95 40 62 0 334 63 323 74 -5 5 -84 -5 -174 -22 l-165 -31 -56 47 c-31 26 -50 53 -44 60 7 6 9 10 4 8 -4 -2 -55 -7 -112 -11z m110 -56 c54 -39 55 -52 3 -85 -37 -23 -39 -21 -28 24 9 34 2 54 -24 69 -20 12 -28 22 -16 22 11 1 40 -13 65 -30z"/> <path d="M5500 2680 c-38 -21 -59 -39 -46 -39 42 -2 71 -83 70 -195 l-1 -106 71 0 72 0 -13 123 c-7 68 -13 153 -13 190 0 79 -33 86 -140 27z"/> <path d="M4435 2666 c-97 -25 35 -290 163 -326 83 -22 92 -17 64 37 -12 22 -22 85 -22 141 0 136 -67 184 -205 148z m165 -186 c0 -84 -57 -121 -62 -40 -2 22 -5 51 -7 65 -5 37 8 55 40 55 20 0 29 -24 29 -80z"/> <path d="M3471 2441 c-32 -33 -66 -54 -77 -47 -11 7 -14 3 -7 -9 7 -12 -23 -85 -68 -162 -45 -78 -100 -193 -122 -257 -43 -124 -83 -180 -147 -209 -29 -13 -16 -15 47 -9 107 11 92 -9 173 222 43 124 108 256 179 363 114 171 122 213 22 108z"/> <path d="M1473 2388 c-286 -33 -299 -55 -23 -40 121 6 236 12 255 13 48 2 62 33 20 43 -19 5 -133 -3 -252 -16z"/> <path d="M2504 2325 c-60 -140 -60 -149 2 -166 80 -23 191 184 125 233 -62 45 -84 34 -127 -67z"/> <path d="M2 2233 l-2 -177 52 13 c165 41 160 42 185 -56 13 -50 23 -112 23 -137 0 -26 18 -58 41 -72 52 -32 35 -61 -29 -49 -32 6 -57 29 -69 65 -19 53 -148 121 -177 93 -25 -25 86 -159 184 -222 59 -38 135 -100 170 -138 35 -39 76 -66 90 -60 15 6 47 -1 71 -14 25 -13 73 -25 107 -28 34 -3 108 -12 165 -20 102 -15 102 -15 93 35 -10 50 -127 101 -331 143 -30 6 -77 16 -105 21 -37 8 -50 23 -50 62 0 28 -9 45 -20 38 -11 -7 -20 -2 -20 11 0 14 13 18 35 9 93 -38 118 -35 69 8 -26 22 -75 46 -110 53 l-64 12 17 227 c21 270 14 300 -62 279 -134 -37 -234 -25 -248 30 -7 28 -13 -29 -15 -126z"/> <path d="M3601 2362 c-37 -68 -26 -142 20 -142 46 0 76 57 41 79 -13 8 -18 28 -11 46 18 47 -26 62 -50 17z"/> <path d="M3902 2344 c-13 -24 -22 -147 -22 -293 l0 -251 231 115 c127 63 217 118 200 121 -17 4 -31 25 -31 47 0 35 -18 30 -174 -51 -96 -50 -176 -89 -178 -86 -18 21 -14 342 5 348 13 5 30 -21 37 -56 28 -126 71 -146 146 -69 l66 67 -73 60 c-47 39 -86 56 -113 49 -22 -6 -47 1 -56 15 -12 19 -21 15 -38 -16z"/> <path d="M3753 2305 c-6 -19 -25 -103 -43 -187 l-33 -152 -129 47 c-122 44 -256 68 -158 28 36 -15 34 -18 -20 -32 -57 -15 -54 -17 71 -59 72 -25 160 -60 197 -79 89 -46 97 -34 132 210 17 115 35 220 40 234 5 14 -4 25 -19 25 -16 0 -33 -16 -38 -35z"/> <path d="M703 2305 l-88 -8 14 -183 c37 -472 171 -556 169 -105 -1 171 -3 309 -5 308 -2 -2 -42 -7 -90 -12z"/> <path d="M5522 2275 c-19 -51 -5 -63 90 -84 60 -12 62 -11 52 43 -17 94 -112 121 -142 41z"/> <path d="M2400 2111 c-32 -40 -26 -46 60 -54 59 -6 70 -1 70 33 0 51 -92 66 -130 21z"/> <path d="M5486 2066 c-7 -17 -3 -36 8 -43 10 -7 25 -29 32 -50 21 -54 63 -29 70 41 7 69 -87 113 -110 52z"/> <path d="M512 1912 c14 -141 22 -165 60 -180 23 -9 25 -3 8 27 -27 51 -25 66 5 49 14 -8 9 3 -10 25 -19 22 -36 57 -36 79 -1 21 -10 56 -21 78 -12 27 -14 2 -6 -78z"/> <path d="M2564 1974 c-38 -90 -31 -160 8 -88 17 31 27 76 23 100 -7 41 -9 40 -31 -12z"/> <path d="M2353 1950 c-78 -77 -32 -159 50 -90 38 32 40 37 9 27 -27 -10 -34 -7 -24 10 8 12 32 23 53 23 22 0 39 9 39 20 0 11 -8 20 -18 20 -10 0 -32 5 -48 11 -16 6 -44 -3 -61 -21z"/> <path d="M5433 1927 c-23 -24 -14 -62 17 -74 22 -9 30 2 30 38 0 48 -20 63 -47 36z"/> <path d="M2432 1788 c-7 -17 -7 -40 -1 -50 13 -21 69 28 69 61 0 33 -54 25 -68 -11z"/> <path d="M0 1580 c0 -140 97 -300 182 -300 12 0 60 -40 107 -90 74 -78 96 -90 166 -90 127 0 130 73 9 166 -101 76 -284 255 -284 277 0 23 -140 177 -162 177 -10 0 -18 -63 -18 -140z"/> <path d="M4731 1682 c-7 -12 -4 -22 7 -22 11 0 16 -13 9 -30 -8 -22 3 -30 41 -30 29 0 52 -8 52 -18 0 -10 -20 -13 -45 -7 -43 12 -43 11 -10 -23 31 -30 49 -150 37 -245 -2 -13 5 -29 15 -35 21 -13 49 231 28 247 -8 6 -15 33 -15 59 0 27 -17 57 -40 70 -22 12 -46 30 -52 39 -7 10 -19 7 -27 -5z"/> <path d="M870 1590 c142 -82 184 -90 100 -19 -68 57 -136 89 -186 88 -19 0 20 -31 86 -69z"/> <path d="M4952 1510 c17 -201 26 -227 59 -182 23 32 33 34 59 12 17 -14 36 -20 43 -14 18 18 -38 194 -62 194 -11 0 -40 25 -65 55 l-45 55 11 -120z"/> <path d="M221 1539 c44 -62 133 -131 149 -116 13 14 -143 177 -169 177 -14 0 -6 -25 20 -61z"/> <path d="M1033 1450 c9 -57 8 -58 -21 -21 -18 21 -37 33 -43 26 -19 -18 154 -295 184 -295 15 0 27 -9 27 -21 0 -14 -12 -14 -39 0 -54 30 -70 26 -41 -9 32 -39 68 -38 102 2 32 39 46 115 18 98 -11 -7 -20 4 -21 24 0 20 -27 58 -60 85 -32 27 -59 59 -59 71 0 12 -13 40 -28 61 -26 35 -28 34 -19 -21z"/> <path d="M460 1461 c0 -26 145 -161 174 -161 13 0 37 -14 55 -31 17 -18 31 -24 31 -15 0 9 8 4 18 -12 18 -28 62 -14 62 20 0 11 -8 15 -18 9 -9 -6 -16 5 -15 24 2 28 -13 35 -70 34 -52 0 -70 7 -62 26 5 15 1 24 -10 21 -11 -3 -43 19 -72 49 -51 55 -93 71 -93 36z"/> <path d="M0 1253 c0 -80 7 -111 22 -102 12 8 30 2 40 -13 13 -21 17 -16 18 17 0 25 9 45 20 45 33 0 22 26 -41 99 l-59 69 0 -115z"/> <path d="M930 1200 c77 -79 90 -89 90 -71 0 21 -126 151 -146 151 -12 0 13 -36 56 -80z"/> <path d="M101 1165 c0 -8 43 -49 95 -90 115 -92 145 -57 34 39 -72 62 -131 85 -129 51z"/> <path d="M4650 1149 c-81 -43 -94 -58 -101 -115 l-5 -48 78 42 c43 23 78 54 78 69 0 18 14 24 40 17 22 -6 44 -3 50 6 6 9 30 11 55 5 31 -7 39 -4 25 11 -38 40 -157 47 -220 13z"/> <path d="M1251 1022 c-41 -47 -34 -129 13 -138 45 -9 103 82 86 135 -16 51 -54 52 -99 3z"/> <path d="M4655 1029 c-65 -36 -68 -51 -17 -97 30 -28 47 -31 79 -14 51 28 133 28 189 1 43 -21 43 -21 4 11 -29 24 -65 30 -128 24 -54 -6 -77 -3 -60 8 16 9 44 18 63 18 22 0 35 15 35 40 0 49 -82 54 -165 9z"/> <path d="M26 1015 c-69 -91 64 -442 245 -645 55 -62 63 -67 35 -21 -20 33 -26 53 -13 46 12 -8 37 -46 55 -85 21 -42 79 -100 148 -147 63 -43 131 -97 152 -121 57 -63 422 -64 442 -2 7 22 21 35 31 29 11 -6 28 12 39 41 25 66 25 89 0 50 -15 -24 -19 -24 -20 -3 0 23 -6 23 -30 3 -25 -21 -39 -16 -80 28 -64 70 -64 85 2 42 39 -25 58 -28 75 -11 17 17 16 27 -3 39 -21 12 -19 21 6 42 26 22 29 21 18 -7 -15 -41 19 -43 52 -3 14 17 16 30 5 30 -12 0 -26 14 -33 31 -9 24 -2 29 26 19 21 -6 44 -2 52 9 8 15 24 15 51 0 55 -29 48 -9 -15 50 -36 33 -62 43 -74 31 -32 -32 -52 -23 -52 21 0 22 13 45 30 52 16 6 30 21 30 32 0 12 -6 16 -13 8 -8 -7 -35 1 -60 17 -50 33 -54 31 -35 -17 7 -19 24 -26 45 -18 28 11 29 8 7 -19 -14 -18 -41 -28 -60 -23 -22 6 -66 -21 -118 -72 -96 -94 -132 -98 -290 -33 l-114 47 29 -57 c16 -31 29 -70 29 -87 0 -17 10 -31 23 -31 13 0 18 -6 11 -13 -7 -7 -25 -2 -40 10 -15 12 -34 17 -41 9 -7 -7 -13 -2 -13 11 0 12 9 23 20 23 24 0 -29 137 -69 177 -23 23 -29 17 -41 -38 -12 -52 -7 -72 21 -92 40 -29 61 -107 29 -107 -11 0 -20 10 -20 21 0 12 -9 16 -20 9 -11 -7 -20 6 -20 29 0 25 -18 49 -46 59 -34 13 -45 32 -42 75 1 31 -6 68 -16 81 -12 15 -11 39 3 65 24 44 51 53 71 21 18 -29 40 -25 93 19 l47 38 -100 -3 c-92 -4 -100 -1 -94 40 5 33 -11 51 -67 78 -40 19 -78 47 -84 63 -9 23 -14 24 -27 2 -13 -20 -17 -21 -18 -2 0 14 -13 25 -30 25 -36 0 -40 -53 -5 -67 15 -6 11 -10 -10 -11 -22 -1 -35 13 -35 37 0 21 -9 44 -20 51 -13 8 -12 27 2 54 19 35 17 40 -7 31 -22 -9 -28 -2 -20 26 11 45 -1 50 -29 14z m964 -714 c-16 -27 -149 -89 -162 -76 -6 6 24 28 66 50 88 46 113 53 96 26z"/> <path d="M795 1000 c5 -16 12 -47 16 -68 10 -47 25 -63 43 -44 8 8 2 23 -15 33 -20 12 -21 18 -4 19 46 0 55 -4 50 -23 -4 -11 4 -14 15 -7 15 10 16 21 1 39 -11 13 -15 31 -7 38 7 7 -11 13 -39 13 -28 0 -55 7 -60 15 -5 8 -5 2 0 -15z"/> <path d="M391 982 c10 -11 72 -37 137 -58 116 -39 185 -124 102 -124 -43 0 -37 -26 13 -57 37 -23 46 -23 61 5 10 18 43 32 75 32 33 0 62 13 69 32 17 45 16 48 -19 48 -17 0 -58 29 -90 64 -55 61 -59 62 -59 20 l0 -45 -99 51 c-96 48 -230 71 -190 32z"/> <path d="M1620 920 c-39 -25 51 -25 110 0 34 15 32 17 -20 18 -33 1 -73 -7 -90 -18z"/> <path d="M1000 852 c0 -29 26 -80 59 -117 l58 -65 23 59 c26 69 0 151 -48 151 -16 0 -43 5 -60 12 -24 9 -32 -1 -32 -40z"/> <path d="M4696 889 c-63 -62 88 -221 164 -174 49 31 53 10 5 -29 -19 -16 -24 -23 -10 -16 15 7 25 -1 25 -21 0 -21 -11 -29 -29 -22 -19 7 -25 1 -18 -16 21 -56 64 -49 85 13 30 84 28 157 -3 151 -14 -3 -25 12 -25 33 0 21 -18 44 -40 52 -73 26 -144 39 -154 29z"/> <path d="M5830 782 c-247 -85 -406 -180 -409 -244 -1 -7 129 29 289 80 l290 92 0 65 c0 36 -2 64 -5 64 -3 -1 -77 -27 -165 -57z"/> <path d="M3000 765 c1 -81 25 -136 42 -94 26 67 20 129 -12 129 -16 0 -30 -16 -30 -35z"/> <path d="M4982 734 c-6 -194 -126 -285 -254 -192 l-58 42 56 -52 c136 -126 340 51 268 232 -6 14 -12 1 -12 -30z"/> <path d="M1331 742 c-6 -10 4 -23 22 -30 18 -7 27 -18 21 -25 -7 -6 1 -25 18 -42 16 -16 36 -24 43 -16 8 7 1 22 -16 32 -25 17 -25 21 1 39 26 17 25 19 -5 20 -19 0 -35 9 -35 20 0 25 -34 26 -49 2z"/> <path d="M3220 702 c0 -21 11 -43 25 -49 16 -6 14 -10 -6 -11 -18 -1 -47 -34 -65 -73 -39 -80 -42 -96 -16 -80 11 6 22 -4 26 -24 5 -23 17 -7 35 45 30 93 75 150 117 150 25 0 24 7 -6 40 -47 52 -110 53 -110 2z"/> <path d="M720 641 c0 -37 45 -45 76 -13 30 29 28 32 -22 32 -30 0 -54 -8 -54 -19z"/> <path d="M1300 625 c0 -19 -6 -57 -14 -85 -11 -44 -9 -47 19 -24 18 15 31 53 31 85 -2 62 -36 84 -36 24z"/> <path d="M5002 569 c-20 -56 -46 -82 -113 -112 -87 -38 -132 -77 -89 -77 35 0 318 121 331 142 6 9 -3 12 -20 6 -19 -8 -31 -1 -31 16 0 83 -51 99 -78 25z"/> <path d="M5826 564 c-200 -91 -200 -90 -133 -134 78 -51 307 65 307 155 0 30 -2 54 -5 54 -3 -1 -79 -35 -169 -75z"/> <path d="M3311 561 c-96 -106 -99 -238 -7 -304 l59 -42 11 43 c6 24 20 36 33 29 13 -8 1 11 -26 40 -66 72 -74 148 -22 196 23 21 41 47 41 58 0 32 -52 21 -89 -20z"/> <path d="M0 454 c0 -134 0 -135 60 -147 33 -7 60 -19 60 -27 0 -15 77 -46 105 -42 8 1 15 -7 15 -18 0 -11 9 -20 20 -20 46 0 -11 90 -195 311 l-65 78 0 -135z"/> <path d="M845 515 c11 -35 95 -45 95 -11 0 15 -23 29 -52 32 -33 2 -48 -5 -43 -21z"/> <path d="M3427 526 c-54 -10 -71 -52 -48 -113 19 -51 74 -84 75 -46 0 13 7 57 16 98 8 41 11 74 7 72 -4 -1 -26 -6 -50 -11z"/> <path d="M5549 502 c-46 -42 -434 -162 -459 -142 -19 16 -25 13 -23 -11 2 -24 -41 -48 -157 -88 -196 -69 -373 -139 -400 -160 -21 -16 -102 -39 -190 -54 -174 -29 -161 -44 41 -45 197 -2 221 2 338 59 139 67 181 62 95 -13 -50 -43 -52 -48 -16 -48 22 0 45 9 52 20 16 26 150 26 150 0 0 -13 183 -20 510 -20 l510 0 0 48 c0 49 -69 86 -91 50 -7 -10 -20 -13 -30 -7 -11 6 -19 -5 -19 -25 -1 -28 -4 -30 -18 -8 -11 17 -38 24 -70 17 -29 -5 -59 0 -66 11 -7 11 -3 15 7 8 21 -13 192 62 257 113 38 29 33 31 -73 27 -62 -2 -109 -10 -104 -18 16 -27 -75 -62 -99 -38 -16 16 -13 22 11 22 18 0 38 18 45 40 7 22 22 40 33 40 10 0 14 9 7 20 -7 12 -21 16 -30 10 -9 -6 -23 -2 -29 9 -7 10 -25 14 -42 8 -18 -7 -29 1 -29 19 0 18 -14 28 -35 24 -19 -4 -42 -8 -51 -8 -9 -1 -11 -11 -4 -22 7 -11 3 -20 -8 -20 -40 0 -42 37 -2 50 55 18 51 56 -5 40 -93 -27 -215 -81 -215 -95 0 -8 -18 -15 -40 -15 -22 0 -40 -9 -40 -20 0 -29 -86 -11 -97 20 -6 18 3 22 25 13 20 -7 29 -4 22 7 -6 10 13 25 44 32 31 8 67 22 81 33 14 11 25 14 25 7 0 -7 35 5 77 26 42 22 94 37 115 34 21 -4 26 -2 12 3 -20 6 -21 15 -3 37 26 31 18 38 -12 10z m-414 -435 c-19 -6 -35 -17 -35 -26 0 -9 -22 -16 -50 -16 -105 0 -51 45 58 49 34 1 46 -2 27 -7z"/> <path d="M5909 358 c-21 -8 -32 -16 -23 -17 8 0 6 -19 -6 -41 -20 -36 -15 -40 49 -40 65 0 71 5 71 57 0 58 -22 68 -91 41z"/> <path d="M3182 180 c-4 -111 -2 -116 39 -105 39 10 41 7 21 -32 -22 -40 -19 -43 40 -43 53 0 61 6 52 40 -6 22 -4 40 4 40 7 0 15 24 18 53 4 54 -22 83 -118 136 l-52 29 -4 -118z"/> <path d="M0 173 c0 -105 120 -173 304 -173 170 0 201 15 60 28 -81 8 -170 51 -299 146 l-65 48 0 -49z"/> </g> </svg> 
